<svg xmlns="http://www.w3.org/2000/svg" viewBox="0 0 1251 213.27"><defs><style>.cls-1{fill:#50b3f6;}</style></defs><g id="Layer_2" data-name="Layer 2"><g id="Layer_1-2" data-name="Layer 1"><path class="cls-1" d="M237.94,143.05a64.7,64.7,0,0,1-25.33-24.29q-9.17-15.48-9.16-35t9.26-35a65.49,65.49,0,0,1,25.42-24.29,74.53,74.53,0,0,1,36.2-8.79A75.53,75.53,0,0,1,304,21.42a60.55,60.55,0,0,1,22.68,16.45L310.81,52.8q-14.37-15.49-35.35-15.5a49.54,49.54,0,0,0-24.38,6,42.94,42.94,0,0,0-16.82,16.54,47.46,47.46,0,0,0-6,24,47.39,47.39,0,0,0,6,24,42.87,42.87,0,0,0,16.82,16.54,49.54,49.54,0,0,0,24.38,6q21,0,35.35-15.69l15.88,15.12a60.57,60.57,0,0,1-22.78,16.45,76.37,76.37,0,0,1-29.77,5.66A74.53,74.53,0,0,1,237.94,143.05Z"/><path class="cls-1" d="M360.15,144.66A48.16,48.16,0,0,1,341,126.23a52,52,0,0,1-6.9-26.75A51.56,51.56,0,0,1,341,72.83,48.39,48.39,0,0,1,360.15,54.5a61.22,61.22,0,0,1,55.38,0,48.53,48.53,0,0,1,19.19,18.33,51.56,51.56,0,0,1,6.9,26.65,52,52,0,0,1-6.9,26.75,48.29,48.29,0,0,1-19.19,18.43,61.22,61.22,0,0,1-55.38,0Zm49.14-22.3q8.5-8.7,8.51-22.88t-8.51-22.87q-8.51-8.69-21.55-8.69t-21.45,8.69q-8.42,8.7-8.41,22.87t8.41,22.88q8.41,8.69,21.45,8.69T409.29,122.36Z"/><path class="cls-1" d="M488.49,43.72v6.05h28.07v18.9H489.25V150H465.62V68.67H449V49.77h16.63V43.35q0-16.26,9.45-25.62t26.65-9.35q13.62,0,21.36,5.48l-6.61,17.77a22.64,22.64,0,0,0-13.05-4.16Q488.5,27.47,488.49,43.72Z"/><path class="cls-1" d="M556.35,43.72v6.05h27.78v18.9h-27V150H533.47V68.67H516.56V49.77h16.91V43.35q0-16.26,9.46-25.62t26.65-9.35q13.6,0,21.36,5.48l-6.62,17.77a22.59,22.59,0,0,0-13-4.16Q556.34,27.47,556.35,43.72Z"/><path class="cls-1" d="M691.12,107.05h-79.2a27.44,27.44,0,0,0,10.87,17.67q8.79,6.53,21.83,6.52,16.62,0,27.41-11l12.66,14.55a42.67,42.67,0,0,1-17.2,12.29,62.68,62.68,0,0,1-23.44,4.16q-16.63,0-29.3-6.62a47.63,47.63,0,0,1-19.56-18.43,52,52,0,0,1-6.9-26.75A52.86,52.86,0,0,1,595,72.93,47.54,47.54,0,0,1,613.62,54.5a54.32,54.32,0,0,1,26.84-6.62,53,53,0,0,1,26.37,6.52A46.19,46.19,0,0,1,685,72.74q6.53,11.82,6.52,27.31Q691.49,102.51,691.12,107.05ZM621.27,73.5q-7.85,6.7-9.54,17.86H669a27.9,27.9,0,0,0-9.26-17.77q-7.75-6.81-19.28-6.81Q629.12,66.78,621.27,73.5Z"/><path class="cls-1" d="M806.8,107.05H727.6a27.44,27.44,0,0,0,10.87,17.67q8.79,6.53,21.83,6.52,16.63,0,27.41-11l12.66,14.55a42.67,42.67,0,0,1-17.2,12.29,62.68,62.68,0,0,1-23.44,4.16q-16.63,0-29.3-6.62a47.63,47.63,0,0,1-19.56-18.43A52,52,0,0,1,704,99.48a52.86,52.86,0,0,1,6.71-26.55A47.54,47.54,0,0,1,729.3,54.5a54.32,54.32,0,0,1,26.84-6.62,53,53,0,0,1,26.37,6.52,46.19,46.19,0,0,1,18.14,18.34q6.52,11.82,6.52,27.31Q807.17,102.51,806.8,107.05ZM737,73.5q-7.85,6.7-9.54,17.86h57.27a27.9,27.9,0,0,0-9.26-17.77q-7.75-6.81-19.28-6.81Q744.8,66.78,737,73.5Z"/><path class="cls-1" d="M1019.83,17.64,976,150H949.89L917.19,52,883.92,150H857.65L813.79,17.64h25.52L872.2,118.2,906.41,17.64H929.1l33.45,101.12L996.39,17.64Z"/><path class="cls-1" d="M1122.65,107.05h-79.2a27.48,27.48,0,0,0,10.87,17.67q8.79,6.53,21.84,6.52,16.62,0,27.4-11l12.67,14.55a42.67,42.67,0,0,1-17.2,12.29,62.72,62.72,0,0,1-23.44,4.16q-16.63,0-29.3-6.62a47.63,47.63,0,0,1-19.56-18.43,51.93,51.93,0,0,1-6.9-26.75,52.76,52.76,0,0,1,6.71-26.55,47.54,47.54,0,0,1,18.62-18.43A54.29,54.29,0,0,1,1072,47.88a53,53,0,0,1,26.36,6.52,46.28,46.28,0,0,1,18.15,18.34q6.52,11.82,6.52,27.31C1123,101.69,1122.91,104,1122.65,107.05ZM1052.81,73.5q-7.85,6.7-9.54,17.86h57.27a27.9,27.9,0,0,0-9.26-17.77q-7.76-6.81-19.28-6.81Q1060.66,66.78,1052.81,73.5Z"/><path class="cls-1" d="M1226.14,54.31a46.34,46.34,0,0,1,18.24,18.15q6.61,11.72,6.62,27t-6.62,27.13a46.12,46.12,0,0,1-18.24,18.24,53.53,53.53,0,0,1-26.37,6.43,48.86,48.86,0,0,1-19-3.59,36.52,36.52,0,0,1-14.46-10.78v13h-22.5V9.7h23.63V61.3a39.55,39.55,0,0,1,14.27-10,46.73,46.73,0,0,1,18-3.41A53.63,53.63,0,0,1,1226.14,54.31Zm-7.56,68.05q8.42-8.7,8.41-22.88t-8.41-22.87q-8.41-8.69-21.45-8.69a30.4,30.4,0,0,0-15.31,3.87A28.06,28.06,0,0,0,1171,82.85a33.92,33.92,0,0,0-4,16.63,33.9,33.9,0,0,0,4,16.64,28,28,0,0,0,10.78,11.06,30.4,30.4,0,0,0,15.31,3.87Q1210.17,131.05,1218.58,122.36Z"/><path class="cls-1" d="M821.09,211.34a14.22,14.22,0,0,1-5.58-5.35,15.64,15.64,0,0,1,0-15.41,14.48,14.48,0,0,1,5.6-5.35,17.56,17.56,0,0,1,14.51-.68,13.3,13.3,0,0,1,5,3.62l-3.49,3.29a10.2,10.2,0,0,0-7.79-3.42,10.85,10.85,0,0,0-5.37,1.32,9.39,9.39,0,0,0-3.7,3.64,11.09,11.09,0,0,0,0,10.57,9.41,9.41,0,0,0,3.7,3.65,11,11,0,0,0,5.37,1.31,10.14,10.14,0,0,0,7.79-3.46l3.49,3.33a13.3,13.3,0,0,1-5,3.62,16.67,16.67,0,0,1-6.56,1.25A16.4,16.4,0,0,1,821.09,211.34Z"/><path class="cls-1" d="M848,211.69a10.57,10.57,0,0,1-4.22-4.06,12.13,12.13,0,0,1,0-11.76,10.66,10.66,0,0,1,4.22-4,13.56,13.56,0,0,1,12.2,0,10.69,10.69,0,0,1,4.23,4,12.13,12.13,0,0,1,0,11.76,10.6,10.6,0,0,1-4.23,4.06,13.47,13.47,0,0,1-12.2,0Zm10.83-4.91a7.73,7.73,0,0,0,0-10.08,6.38,6.38,0,0,0-4.75-1.91,6.3,6.3,0,0,0-4.72,1.91,7.76,7.76,0,0,0,0,10.08,6.3,6.3,0,0,0,4.72,1.91A6.38,6.38,0,0,0,858.83,206.78Z"/><path class="cls-1" d="M889.89,192.83q2.54,2.46,2.54,7.29v12.74h-5.21V200.78a6.28,6.28,0,0,0-1.37-4.39,5.11,5.11,0,0,0-3.92-1.48,6,6,0,0,0-4.54,1.73,6.93,6.93,0,0,0-1.66,5v11.24h-5.2V190.63h5v2.87a8,8,0,0,1,3.25-2.33,11.59,11.59,0,0,1,4.41-.79A9.31,9.31,0,0,1,889.89,192.83Z"/><path class="cls-1" d="M918,192.83q2.53,2.46,2.54,7.29v12.74h-5.21V200.78a6.28,6.28,0,0,0-1.37-4.39,5.11,5.11,0,0,0-3.92-1.48,6,6,0,0,0-4.53,1.73,6.89,6.89,0,0,0-1.67,5v11.24h-5.2V190.63h5v2.87a8,8,0,0,1,3.25-2.33,11.59,11.59,0,0,1,4.41-.79A9.29,9.29,0,0,1,918,192.83Z"/><path class="cls-1" d="M947.75,203.41H930.31a6.08,6.08,0,0,0,2.39,3.89,7.84,7.84,0,0,0,4.81,1.43,8.11,8.11,0,0,0,6-2.41l2.79,3.21a9.4,9.4,0,0,1-3.79,2.7,15,15,0,0,1-11.62-.54,10.5,10.5,0,0,1-4.31-4.06,11.48,11.48,0,0,1-1.51-5.89,11.71,11.71,0,0,1,1.47-5.85,10.53,10.53,0,0,1,4.1-4.06,12,12,0,0,1,5.92-1.45,11.71,11.71,0,0,1,5.8,1.43,10.23,10.23,0,0,1,4,4,12.21,12.21,0,0,1,1.44,6C947.84,202.23,947.81,202.74,947.75,203.41ZM932.37,196a6.19,6.19,0,0,0-2.1,3.93h12.61a6.11,6.11,0,0,0-2-3.91,6.76,6.76,0,0,0-8.47,0Z"/><path class="cls-1" d="M956.41,211.69a10.69,10.69,0,0,1-4.29-4.06,12,12,0,0,1,0-11.76,10.79,10.79,0,0,1,4.27-4,13,13,0,0,1,6.23-1.45,12,12,0,0,1,5.76,1.33,8.68,8.68,0,0,1,3.73,3.83l-4,2.33a6.35,6.35,0,0,0-2.39-2.31,6.5,6.5,0,0,0-3.15-.77,6.6,6.6,0,0,0-4.83,1.89,7.69,7.69,0,0,0,0,10.12,6.59,6.59,0,0,0,4.85,1.89,6.5,6.5,0,0,0,3.15-.77,6.35,6.35,0,0,0,2.39-2.31l4,2.33a9.06,9.06,0,0,1-3.77,3.86,11.76,11.76,0,0,1-5.72,1.35A13.06,13.06,0,0,1,956.41,211.69Z"/><path class="cls-1" d="M989.84,211.65a6.11,6.11,0,0,1-2.22,1.12,10.07,10.07,0,0,1-2.77.38,7.84,7.84,0,0,1-5.66-1.92,7.32,7.32,0,0,1-2-5.58V195h-3.67v-4.16h3.67v-5.08h5.2v5.08h6V195h-6v10.58a3.52,3.52,0,0,0,.79,2.48,3,3,0,0,0,2.29.85,4.53,4.53,0,0,0,2.92-.92Z"/><path class="cls-1" d="M1047.88,183.71l-9.66,29.15h-5.75l-7.2-21.57-7.33,21.57h-5.78l-9.66-29.15h5.62l7.24,22.15,7.54-22.15h5l7.37,22.28,7.45-22.28Z"/><path class="cls-1" d="M1051.83,186.07a3.09,3.09,0,0,1,0-4.46,3.33,3.33,0,0,1,2.38-.89,3.43,3.43,0,0,1,2.37.85,2.74,2.74,0,0,1,1,2.14,3.18,3.18,0,0,1-.94,2.32,3.26,3.26,0,0,1-2.39.93A3.38,3.38,0,0,1,1051.83,186.07Zm-.25,4.56h5.21v22.23h-5.21Z"/><path class="cls-1" d="M1076.56,211.65a6.11,6.11,0,0,1-2.22,1.12,10.07,10.07,0,0,1-2.77.38,7.82,7.82,0,0,1-5.66-1.92,7.32,7.32,0,0,1-2-5.58V195h-3.67v-4.16h3.67v-5.08h5.2v5.08h6V195h-6v10.58a3.52,3.52,0,0,0,.79,2.48,3,3,0,0,0,2.29.85,4.53,4.53,0,0,0,2.92-.92Z"/><path class="cls-1" d="M1099.79,192.83q2.54,2.46,2.54,7.29v12.74h-5.2V200.78a6.23,6.23,0,0,0-1.38-4.39,5.09,5.09,0,0,0-3.91-1.48,6,6,0,0,0-4.54,1.73,6.89,6.89,0,0,0-1.66,5v11.24h-5.21V182h5.21v11.24a8.48,8.48,0,0,1,3.18-2.11,11.84,11.84,0,0,1,4.23-.72A9.27,9.27,0,0,1,1099.79,192.83Z"/><path class="cls-1" d="M1125.63,211.34a14.22,14.22,0,0,1-5.58-5.35,15.64,15.64,0,0,1,0-15.41,14.41,14.41,0,0,1,5.6-5.35,17.56,17.56,0,0,1,14.51-.68,13.3,13.3,0,0,1,5,3.62l-3.5,3.29a10.17,10.17,0,0,0-7.78-3.42,10.85,10.85,0,0,0-5.37,1.32,9.48,9.48,0,0,0-3.71,3.64,11.17,11.17,0,0,0,0,10.57,9.5,9.5,0,0,0,3.71,3.65,11,11,0,0,0,5.37,1.31,10.1,10.1,0,0,0,7.78-3.46l3.5,3.33a13.3,13.3,0,0,1-5,3.62,16.67,16.67,0,0,1-6.56,1.25A16.4,16.4,0,0,1,1125.63,211.34Z"/><path class="cls-1" d="M1152.54,211.69a10.6,10.6,0,0,1-4.23-4.06,12.2,12.2,0,0,1,0-11.76,10.69,10.69,0,0,1,4.23-4,12.62,12.62,0,0,1,6.08-1.45,12.75,12.75,0,0,1,6.12,1.45,10.66,10.66,0,0,1,4.22,4,12.13,12.13,0,0,1,0,11.76,10.57,10.57,0,0,1-4.22,4.06,12.75,12.75,0,0,1-6.12,1.46A12.62,12.62,0,0,1,1152.54,211.69Zm10.83-4.91a7.73,7.73,0,0,0,0-10.08,6.4,6.4,0,0,0-4.75-1.91,6.32,6.32,0,0,0-4.73,1.91,7.79,7.79,0,0,0,0,10.08,6.32,6.32,0,0,0,4.73,1.91A6.4,6.4,0,0,0,1163.37,206.78Z"/><path class="cls-1" d="M1180.81,189.46v1.33h6.12V195h-6v17.91h-5.21V195h-3.66v-4.16h3.66v-1.41a7.6,7.6,0,0,1,2.08-5.64,8,8,0,0,1,5.87-2.07,8.08,8.08,0,0,1,4.71,1.21l-1.46,3.91a5,5,0,0,0-2.87-.91Q1180.82,185.88,1180.81,189.46Z"/><path class="cls-1" d="M1195.75,189.46v1.33h6.12V195h-5.95v17.91h-5.2V195h-3.67v-4.16h3.67v-1.41a7.56,7.56,0,0,1,2.08-5.64,9.52,9.52,0,0,1,10.57-.86l-1.45,3.91a5,5,0,0,0-2.88-.91Q1195.75,185.88,1195.75,189.46Z"/><path class="cls-1" d="M1225.44,203.41H1208a6.09,6.09,0,0,0,2.4,3.89,7.82,7.82,0,0,0,4.81,1.43,8.08,8.08,0,0,0,6-2.41l2.79,3.21a9.4,9.4,0,0,1-3.79,2.7,15,15,0,0,1-11.61-.54,10.43,10.43,0,0,1-4.31-4.06,11.39,11.39,0,0,1-1.52-5.89,11.62,11.62,0,0,1,1.48-5.85,10.46,10.46,0,0,1,4.1-4.06,12,12,0,0,1,5.91-1.45,11.77,11.77,0,0,1,5.81,1.43,10.23,10.23,0,0,1,4,4,12.32,12.32,0,0,1,1.43,6C1225.52,202.23,1225.49,202.74,1225.44,203.41ZM1210.06,196A6.16,6.16,0,0,0,1208,200h12.62a6.48,6.48,0,0,0-10.51-3.93Z"/><path class="cls-1" d="M1250.92,203.41h-17.45a6.09,6.09,0,0,0,2.4,3.89,7.82,7.82,0,0,0,4.81,1.43,8.08,8.08,0,0,0,6-2.41l2.79,3.21a9.4,9.4,0,0,1-3.79,2.7,15,15,0,0,1-11.61-.54,10.43,10.43,0,0,1-4.31-4.06,11.39,11.39,0,0,1-1.52-5.89,11.62,11.62,0,0,1,1.48-5.85,10.46,10.46,0,0,1,4.1-4.06,12,12,0,0,1,5.91-1.45,11.77,11.77,0,0,1,5.81,1.43,10.23,10.23,0,0,1,4,4,12.32,12.32,0,0,1,1.43,6C1251,202.23,1251,202.74,1250.92,203.41ZM1235.54,196a6.16,6.16,0,0,0-2.11,3.93h12.62a6.48,6.48,0,0,0-10.51-3.93Z"/><path class="cls-1" d="M58,124.2c0-22.19,8.12-36,14.57-46.61,6.26-10.32,12.84-23.75,13.09-43,.22-18.45-11-33.4-12-34.6C32.7,1.83,0,37,0,80.11c0,43.73,33.65,79.29,75.49,80.17C69.87,159,58,146.3,58,124.2Z"/><path class="cls-1" d="M74.34,132.71c-1.68,0-3.39.1-5.19.21A96.31,96.31,0,0,0,74.34,157Z"/><path class="cls-1" d="M74.34,106.39c-.67,0-1.33,0-2,0a86.41,86.41,0,0,0-3.21,18.16c-.07,1-.11,1.9-.11,2.87,1.76-.13,3.54-.22,5.32-.3Z"/><path class="cls-1" d="M112.24,20.91a82.66,82.66,0,0,0,10.38-4.09C112.65,9.49,96,2,84.09.12,92.66,4.73,105.79,13.56,112.24,20.91Z"/><path class="cls-1" d="M106.48,136.29A95.66,95.66,0,0,0,95,134.06c-3,6.49-7.48,17.85-12.4,23.78C93.28,151.82,100.48,143.23,106.48,136.29Z"/><path class="cls-1" d="M86,159.41c15-1.24,30.49-11.4,36.57-17.47a86.78,86.78,0,0,0-10.35-4.11C105.84,145.22,94.61,154.78,86,159.41Z"/><path class="cls-1" d="M116,133.39a90.39,90.39,0,0,1,11.49,4.74,75.58,75.58,0,0,0,16.48-20.23,111.13,111.13,0,0,0-16.12-5.47A88.2,88.2,0,0,1,116,133.39Z"/><path class="cls-1" d="M79.82,132.71l-1,24.36c3.06-3,8.85-17.68,10.3-23.81C85.82,132.94,82.76,132.77,79.82,132.71Z"/><path class="cls-1" d="M133.89,76.73H154a78.62,78.62,0,0,0-7.67-31,117.38,117.38,0,0,1-16.78,5.77A87.66,87.66,0,0,1,133.89,76.73Z"/><path class="cls-1" d="M129.58,107.4a124,124,0,0,1,16.78,5.76,78.39,78.39,0,0,0,7.67-31H133.89A87.46,87.46,0,0,1,129.58,107.4Z"/><path class="cls-1" d="M127.78,46.24a129.79,129.79,0,0,0,16.11-5.42A82.76,82.76,0,0,0,127.4,20.61,82.43,82.43,0,0,1,116,25.37,88.66,88.66,0,0,1,127.78,46.24Z"/><path class="cls-1" d="M79.82,127.26a109.7,109.7,0,0,1,11.64.84,137.77,137.77,0,0,0,6.88-20.74c-5.68-.58-11.9-.93-18.52-1Z"/><path class="cls-1" d="M86.06,76.73h16a123.08,123.08,0,0,0-2.33-19.84c-1.87.19-3.82.36-5.79.51A91.9,91.9,0,0,1,86.06,76.73Z"/><path class="cls-1" d="M122.21,47.5a84,84,0,0,0-11.94-20.4,87.53,87.53,0,0,1-13.22,3,139.67,139.67,0,0,1,6.77,20.68A165.74,165.74,0,0,0,122.21,47.5Z"/><path class="cls-1" d="M124.2,52.73A175.44,175.44,0,0,1,105,56.14a116.09,116.09,0,0,1,2.4,20.59h21A80.9,80.9,0,0,0,124.2,52.73Z"/><path class="cls-1" d="M122.21,111.19A165.65,165.65,0,0,0,103.82,108,142.59,142.59,0,0,1,97,128.85a119.47,119.47,0,0,1,13.24,2.81A85,85,0,0,0,122.21,111.19Z"/><path class="cls-1" d="M79.82,88.05V101c6,.06,12.37.41,19.85,1.07A121.11,121.11,0,0,0,102,82.16H83C81.88,84.17,80.81,86.14,79.82,88.05Z"/><path class="cls-1" d="M106.48,22.58C100.05,15.81,88.54,5.44,80.34,1.37,85.5,8.42,91.59,14.35,94.78,25,99.32,24.23,103.07,23.46,106.48,22.58Z"/><path class="cls-1" d="M128.4,82.16H107.55a118.1,118.1,0,0,1-2.4,20.59,190.46,190.46,0,0,1,19.2,3.38A85.8,85.8,0,0,0,128.4,82.16Z"/><path class="cls-1" d="M95.12,51.92c1-.07,2.12-.15,3.22-.26-.69-2.83-1.44-5.57-2.27-8.25A58.47,58.47,0,0,1,95.12,51.92Z"/></g></g></svg>